<?xml version="1.0" encoding="UTF-8"?>
<svg xmlns="http://www.w3.org/2000/svg" xmlns:xlink="http://www.w3.org/1999/xlink" width="300px" height="200px" viewBox="0 0 380 200" version="1.1">
<g id="surface1">
<rect x="0" y="0" width="380" height="200" style="fill:rgb(69.803922%,13.333333%,20.392157%);fill-opacity:1;stroke:none;"/>
<path style="fill-rule:nonzero;fill:rgb(0%,0%,0%);fill-opacity:1;stroke-width:300;stroke-linecap:butt;stroke-linejoin:miter;stroke:rgb(100%,100%,100%);stroke-opacity:1;stroke-miterlimit:4;" d="M 0 450.023438 L 7410 450.023438 M 7410 1050.029297 L 0 1050.029297 M 0 1650.035156 L 7410 1650.035156 M 7410 2249.964844 L 0 2249.964844 M 0 2849.970703 L 7410 2849.970703 M 7410 3449.976562 L 0 3449.976562 " transform="matrix(0.0512821,0,0,0.0512821,0,0)"/>
<path style=" stroke:none;fill-rule:nonzero;fill:rgb(23.529412%,23.137255%,43.137255%);fill-opacity:1;" d="M 0 0 L 152 0 L 152 107.691406 L 0 107.691406 Z M 0 0 "/>
<path style=" stroke:none;fill-rule:nonzero;fill:rgb(100%,100%,100%);fill-opacity:1;" d="M 12.667969 4.617188 L 16.285156 15.746094 L 6.8125 8.867188 L 18.519531 8.867188 L 9.050781 15.746094 Z M 12.667969 4.617188 "/>
<path style=" stroke:none;fill-rule:nonzero;fill:rgb(100%,100%,100%);fill-opacity:1;" d="M 12.667969 26.152344 L 16.285156 37.285156 L 6.8125 30.40625 L 18.519531 30.40625 L 9.050781 37.285156 Z M 12.667969 26.152344 "/>
<path style=" stroke:none;fill-rule:nonzero;fill:rgb(100%,100%,100%);fill-opacity:1;" d="M 12.667969 47.691406 L 16.285156 58.824219 L 6.8125 51.945312 L 18.519531 51.945312 L 9.050781 58.824219 Z M 12.667969 47.691406 "/>
<path style=" stroke:none;fill-rule:nonzero;fill:rgb(100%,100%,100%);fill-opacity:1;" d="M 12.667969 69.230469 L 16.285156 80.363281 L 6.8125 73.484375 L 18.519531 73.484375 L 9.050781 80.363281 Z M 12.667969 69.230469 "/>
<path style=" stroke:none;fill-rule:nonzero;fill:rgb(100%,100%,100%);fill-opacity:1;" d="M 12.667969 90.769531 L 16.285156 101.902344 L 6.8125 95.019531 L 18.519531 95.019531 L 9.050781 101.902344 Z M 12.667969 90.769531 "/>
<path style=" stroke:none;fill-rule:nonzero;fill:rgb(100%,100%,100%);fill-opacity:1;" d="M 25.332031 15.382812 L 28.949219 26.515625 L 19.480469 19.636719 L 31.1875 19.636719 L 21.714844 26.515625 Z M 25.332031 15.382812 "/>
<path style=" stroke:none;fill-rule:nonzero;fill:rgb(100%,100%,100%);fill-opacity:1;" d="M 25.332031 36.921875 L 28.949219 48.054688 L 19.480469 41.175781 L 31.1875 41.175781 L 21.714844 48.054688 Z M 25.332031 36.921875 "/>
<path style=" stroke:none;fill-rule:nonzero;fill:rgb(100%,100%,100%);fill-opacity:1;" d="M 25.332031 58.460938 L 28.949219 69.59375 L 19.480469 62.714844 L 31.1875 62.714844 L 21.714844 69.59375 Z M 25.332031 58.460938 "/>
<path style=" stroke:none;fill-rule:nonzero;fill:rgb(100%,100%,100%);fill-opacity:1;" d="M 25.332031 80 L 28.949219 91.132812 L 19.480469 84.253906 L 31.1875 84.253906 L 21.714844 91.132812 Z M 25.332031 80 "/>
<path style=" stroke:none;fill-rule:nonzero;fill:rgb(100%,100%,100%);fill-opacity:1;" d="M 38 4.617188 L 41.617188 15.746094 L 32.148438 8.867188 L 43.851562 8.867188 L 34.382812 15.746094 Z M 38 4.617188 "/>
<path style=" stroke:none;fill-rule:nonzero;fill:rgb(100%,100%,100%);fill-opacity:1;" d="M 38 26.152344 L 41.617188 37.285156 L 32.148438 30.40625 L 43.851562 30.40625 L 34.382812 37.285156 Z M 38 26.152344 "/>
<path style=" stroke:none;fill-rule:nonzero;fill:rgb(100%,100%,100%);fill-opacity:1;" d="M 38 47.691406 L 41.617188 58.824219 L 32.148438 51.945312 L 43.851562 51.945312 L 34.382812 58.824219 Z M 38 47.691406 "/>
<path style=" stroke:none;fill-rule:nonzero;fill:rgb(100%,100%,100%);fill-opacity:1;" d="M 38 69.230469 L 41.617188 80.363281 L 32.148438 73.484375 L 43.851562 73.484375 L 34.382812 80.363281 Z M 38 69.230469 "/>
<path style=" stroke:none;fill-rule:nonzero;fill:rgb(100%,100%,100%);fill-opacity:1;" d="M 38 90.769531 L 41.617188 101.902344 L 32.148438 95.019531 L 43.851562 95.019531 L 34.382812 101.902344 Z M 38 90.769531 "/>
<path style=" stroke:none;fill-rule:nonzero;fill:rgb(100%,100%,100%);fill-opacity:1;" d="M 50.667969 15.382812 L 54.285156 26.515625 L 44.8125 19.636719 L 56.519531 19.636719 L 47.050781 26.515625 Z M 50.667969 15.382812 "/>
<path style=" stroke:none;fill-rule:nonzero;fill:rgb(100%,100%,100%);fill-opacity:1;" d="M 50.667969 36.921875 L 54.285156 48.054688 L 44.8125 41.175781 L 56.519531 41.175781 L 47.050781 48.054688 Z M 50.667969 36.921875 "/>
<path style=" stroke:none;fill-rule:nonzero;fill:rgb(100%,100%,100%);fill-opacity:1;" d="M 50.667969 58.460938 L 54.285156 69.59375 L 44.8125 62.714844 L 56.519531 62.714844 L 47.050781 69.59375 Z M 50.667969 58.460938 "/>
<path style=" stroke:none;fill-rule:nonzero;fill:rgb(100%,100%,100%);fill-opacity:1;" d="M 50.667969 80 L 54.285156 91.132812 L 44.8125 84.253906 L 56.519531 84.253906 L 47.050781 91.132812 Z M 50.667969 80 "/>
<path style=" stroke:none;fill-rule:nonzero;fill:rgb(100%,100%,100%);fill-opacity:1;" d="M 63.332031 4.617188 L 66.949219 15.746094 L 57.480469 8.867188 L 69.1875 8.867188 L 59.714844 15.746094 Z M 63.332031 4.617188 "/>
<path style=" stroke:none;fill-rule:nonzero;fill:rgb(100%,100%,100%);fill-opacity:1;" d="M 63.332031 26.152344 L 66.949219 37.285156 L 57.480469 30.40625 L 69.1875 30.40625 L 59.714844 37.285156 Z M 63.332031 26.152344 "/>
<path style=" stroke:none;fill-rule:nonzero;fill:rgb(100%,100%,100%);fill-opacity:1;" d="M 63.332031 47.691406 L 66.949219 58.824219 L 57.480469 51.945312 L 69.1875 51.945312 L 59.714844 58.824219 Z M 63.332031 47.691406 "/>
<path style=" stroke:none;fill-rule:nonzero;fill:rgb(100%,100%,100%);fill-opacity:1;" d="M 63.332031 69.230469 L 66.949219 80.363281 L 57.480469 73.484375 L 69.1875 73.484375 L 59.714844 80.363281 Z M 63.332031 69.230469 "/>
<path style=" stroke:none;fill-rule:nonzero;fill:rgb(100%,100%,100%);fill-opacity:1;" d="M 63.332031 90.769531 L 66.949219 101.902344 L 57.480469 95.019531 L 69.1875 95.019531 L 59.714844 101.902344 Z M 63.332031 90.769531 "/>
<path style=" stroke:none;fill-rule:nonzero;fill:rgb(100%,100%,100%);fill-opacity:1;" d="M 76 15.382812 L 79.617188 26.515625 L 70.148438 19.636719 L 81.851562 19.636719 L 72.382812 26.515625 Z M 76 15.382812 "/>
<path style=" stroke:none;fill-rule:nonzero;fill:rgb(100%,100%,100%);fill-opacity:1;" d="M 76 36.921875 L 79.617188 48.054688 L 70.148438 41.175781 L 81.851562 41.175781 L 72.382812 48.054688 Z M 76 36.921875 "/>
<path style=" stroke:none;fill-rule:nonzero;fill:rgb(100%,100%,100%);fill-opacity:1;" d="M 76 58.460938 L 79.617188 69.59375 L 70.148438 62.714844 L 81.851562 62.714844 L 72.382812 69.59375 Z M 76 58.460938 "/>
<path style=" stroke:none;fill-rule:nonzero;fill:rgb(100%,100%,100%);fill-opacity:1;" d="M 76 80 L 79.617188 91.132812 L 70.148438 84.253906 L 81.851562 84.253906 L 72.382812 91.132812 Z M 76 80 "/>
<path style=" stroke:none;fill-rule:nonzero;fill:rgb(100%,100%,100%);fill-opacity:1;" d="M 88.667969 4.617188 L 92.285156 15.746094 L 82.8125 8.867188 L 94.519531 8.867188 L 85.050781 15.746094 Z M 88.667969 4.617188 "/>
<path style=" stroke:none;fill-rule:nonzero;fill:rgb(100%,100%,100%);fill-opacity:1;" d="M 88.667969 26.152344 L 92.285156 37.285156 L 82.8125 30.40625 L 94.519531 30.40625 L 85.050781 37.285156 Z M 88.667969 26.152344 "/>
<path style=" stroke:none;fill-rule:nonzero;fill:rgb(100%,100%,100%);fill-opacity:1;" d="M 88.667969 47.691406 L 92.285156 58.824219 L 82.8125 51.945312 L 94.519531 51.945312 L 85.050781 58.824219 Z M 88.667969 47.691406 "/>
<path style=" stroke:none;fill-rule:nonzero;fill:rgb(100%,100%,100%);fill-opacity:1;" d="M 88.667969 69.230469 L 92.285156 80.363281 L 82.8125 73.484375 L 94.519531 73.484375 L 85.050781 80.363281 Z M 88.667969 69.230469 "/>
<path style=" stroke:none;fill-rule:nonzero;fill:rgb(100%,100%,100%);fill-opacity:1;" d="M 88.667969 90.769531 L 92.285156 101.902344 L 82.8125 95.019531 L 94.519531 95.019531 L 85.050781 101.902344 Z M 88.667969 90.769531 "/>
<path style=" stroke:none;fill-rule:nonzero;fill:rgb(100%,100%,100%);fill-opacity:1;" d="M 101.332031 15.382812 L 104.949219 26.515625 L 95.480469 19.636719 L 107.1875 19.636719 L 97.714844 26.515625 Z M 101.332031 15.382812 "/>
<path style=" stroke:none;fill-rule:nonzero;fill:rgb(100%,100%,100%);fill-opacity:1;" d="M 101.332031 36.921875 L 104.949219 48.054688 L 95.480469 41.175781 L 107.1875 41.175781 L 97.714844 48.054688 Z M 101.332031 36.921875 "/>
<path style=" stroke:none;fill-rule:nonzero;fill:rgb(100%,100%,100%);fill-opacity:1;" d="M 101.332031 58.460938 L 104.949219 69.59375 L 95.480469 62.714844 L 107.1875 62.714844 L 97.714844 69.59375 Z M 101.332031 58.460938 "/>
<path style=" stroke:none;fill-rule:nonzero;fill:rgb(100%,100%,100%);fill-opacity:1;" d="M 101.332031 80 L 104.949219 91.132812 L 95.480469 84.253906 L 107.1875 84.253906 L 97.714844 91.132812 Z M 101.332031 80 "/>
<path style=" stroke:none;fill-rule:nonzero;fill:rgb(100%,100%,100%);fill-opacity:1;" d="M 114 4.617188 L 117.617188 15.746094 L 108.148438 8.867188 L 119.851562 8.867188 L 110.382812 15.746094 Z M 114 4.617188 "/>
<path style=" stroke:none;fill-rule:nonzero;fill:rgb(100%,100%,100%);fill-opacity:1;" d="M 114 26.152344 L 117.617188 37.285156 L 108.148438 30.40625 L 119.851562 30.40625 L 110.382812 37.285156 Z M 114 26.152344 "/>
<path style=" stroke:none;fill-rule:nonzero;fill:rgb(100%,100%,100%);fill-opacity:1;" d="M 114 47.691406 L 117.617188 58.824219 L 108.148438 51.945312 L 119.851562 51.945312 L 110.382812 58.824219 Z M 114 47.691406 "/>
<path style=" stroke:none;fill-rule:nonzero;fill:rgb(100%,100%,100%);fill-opacity:1;" d="M 114 69.230469 L 117.617188 80.363281 L 108.148438 73.484375 L 119.851562 73.484375 L 110.382812 80.363281 Z M 114 69.230469 "/>
<path style=" stroke:none;fill-rule:nonzero;fill:rgb(100%,100%,100%);fill-opacity:1;" d="M 114 90.769531 L 117.617188 101.902344 L 108.148438 95.019531 L 119.851562 95.019531 L 110.382812 101.902344 Z M 114 90.769531 "/>
<path style=" stroke:none;fill-rule:nonzero;fill:rgb(100%,100%,100%);fill-opacity:1;" d="M 126.667969 15.382812 L 130.285156 26.515625 L 120.8125 19.636719 L 132.519531 19.636719 L 123.050781 26.515625 Z M 126.667969 15.382812 "/>
<path style=" stroke:none;fill-rule:nonzero;fill:rgb(100%,100%,100%);fill-opacity:1;" d="M 126.667969 36.921875 L 130.285156 48.054688 L 120.8125 41.175781 L 132.519531 41.175781 L 123.050781 48.054688 Z M 126.667969 36.921875 "/>
<path style=" stroke:none;fill-rule:nonzero;fill:rgb(100%,100%,100%);fill-opacity:1;" d="M 126.667969 58.460938 L 130.285156 69.59375 L 120.8125 62.714844 L 132.519531 62.714844 L 123.050781 69.59375 Z M 126.667969 58.460938 "/>
<path style=" stroke:none;fill-rule:nonzero;fill:rgb(100%,100%,100%);fill-opacity:1;" d="M 126.667969 80 L 130.285156 91.132812 L 120.8125 84.253906 L 132.519531 84.253906 L 123.050781 91.132812 Z M 126.667969 80 "/>
<path style=" stroke:none;fill-rule:nonzero;fill:rgb(100%,100%,100%);fill-opacity:1;" d="M 139.332031 4.617188 L 142.949219 15.746094 L 133.480469 8.867188 L 145.1875 8.867188 L 135.714844 15.746094 Z M 139.332031 4.617188 "/>
<path style=" stroke:none;fill-rule:nonzero;fill:rgb(100%,100%,100%);fill-opacity:1;" d="M 139.332031 26.152344 L 142.949219 37.285156 L 133.480469 30.40625 L 145.1875 30.40625 L 135.714844 37.285156 Z M 139.332031 26.152344 "/>
<path style=" stroke:none;fill-rule:nonzero;fill:rgb(100%,100%,100%);fill-opacity:1;" d="M 139.332031 47.691406 L 142.949219 58.824219 L 133.480469 51.945312 L 145.1875 51.945312 L 135.714844 58.824219 Z M 139.332031 47.691406 "/>
<path style=" stroke:none;fill-rule:nonzero;fill:rgb(100%,100%,100%);fill-opacity:1;" d="M 139.332031 69.230469 L 142.949219 80.363281 L 133.480469 73.484375 L 145.1875 73.484375 L 135.714844 80.363281 Z M 139.332031 69.230469 "/>
<path style=" stroke:none;fill-rule:nonzero;fill:rgb(100%,100%,100%);fill-opacity:1;" d="M 139.332031 90.769531 L 142.949219 101.902344 L 133.480469 95.019531 L 145.1875 95.019531 L 135.714844 101.902344 Z M 139.332031 90.769531 "/>
</g>
</svg>
